# Blender v2.75 (sub 0) OBJ File: 'campfire.blend'
# www.blender.org
mtllib campfire_wood.mtl
o pinetree01.009_Plane.003
v 26.377884 -2.900899 -2.699896
v 26.753160 -2.653088 -2.575949
v 26.468157 -2.663947 -1.841292
v 26.136877 -2.880293 -2.018159
v 24.474876 0.735996 -3.442026
v 24.633669 0.893965 -3.392370
v 24.516323 0.928611 -3.106355
v 24.299685 0.871454 -3.182419
v 26.690918 -2.765325 -2.770165
v 26.696558 -2.599321 -2.256441
v 26.311989 -2.738833 -1.946595
v 26.179943 -2.933174 -2.384949
v 24.540268 0.864118 -3.473037
v 24.619484 0.897054 -3.232378
v 24.434111 0.829805 -3.083024
v 24.385912 0.742816 -3.309523
vt 0.918133 2.666139
vt 0.854854 2.699002
vt 0.777615 -0.171764
vt 0.911452 -0.147682
vt 0.438756 2.690664
vt 0.226257 2.672116
vt 0.301615 -0.149135
vt 0.482402 -0.149812
vt 0.983014 2.683601
vt 1.020878 -0.149135
vt 0.599951 2.717907
vt 0.611275 -0.160335
vt 0.796390 2.666139
vt 0.713423 -0.147682
vt 0.034884 2.709143
vt 0.112570 -0.163731
vt -0.088151 2.683601
vt 0.016746 -0.149135
vn 0.790800 0.546300 0.275900
vn 0.254100 0.435600 0.863500
vn 0.211900 0.419000 0.882900
vn 0.791400 0.546200 0.274300
vn -0.845400 -0.475800 -0.242700
vn -0.403600 -0.379400 -0.832500
vn -0.442400 -0.394200 -0.805500
vn -0.831600 -0.478700 -0.281700
vn 0.841100 0.433500 -0.323400
vn 0.846700 0.443300 -0.294200
vn -0.854700 -0.285100 0.433700
vn -0.836500 -0.261800 0.481300
vn -0.444000 0.059600 0.894000
vn -0.438600 0.063600 0.896400
vn 0.452500 0.089500 -0.887200
vn 0.379800 0.039800 -0.924200
usemtl tree
s 1
f 14/1/1 7/2/2 3/3/3 10/4/4
f 16/5/5 5/6/6 1/7/7 12/8/8
f 6/9/9 14/1/1 10/4/4 2/10/10
f 8/11/11 16/5/5 12/8/8 4/12/12
f 7/2/2 15/13/13 11/14/14 3/3/3
f 5/6/6 13/15/15 9/16/16 1/7/7
f 15/13/13 8/11/11 4/12/12 11/14/14
f 13/15/15 6/17/9 2/18/10 9/16/16
o pinetree01.007_Plane.003
v 25.061577 -2.606930 -1.040138
v 25.187748 -2.315438 -0.698497
v 24.442924 -2.355013 -0.444064
v 24.383171 -2.610402 -0.789085
v 24.162321 0.772900 -3.313305
v 24.214088 0.948955 -3.175612
v 23.917295 0.971386 -3.085142
v 23.841837 0.888371 -3.293468
v 25.305218 -2.435612 -0.859589
v 24.902550 -2.266574 -0.542119
v 24.429672 -2.448648 -0.623346
v 24.695997 -2.660320 -0.986148
v 24.218687 0.907666 -3.295594
v 24.081980 0.951441 -3.084239
v 23.854040 0.863676 -3.123393
v 24.003450 0.770016 -3.296876
vt 0.918133 2.666139
vt 0.854854 2.699002
vt 0.777615 -0.171764
vt 0.911452 -0.147682
vt 0.438756 2.690664
vt 0.226257 2.672116
vt 0.301615 -0.149135
vt 0.482402 -0.149812
vt 0.983014 2.683601
vt 1.020878 -0.149135
vt 0.599951 2.717907
vt 0.611275 -0.160335
vt 0.796390 2.666139
vt 0.713423 -0.147682
vt 0.034884 2.709143
vt 0.112570 -0.163731
vt -0.088151 2.683601
vt 0.016746 -0.149135
vn 0.252800 0.638300 0.727100
vn -0.532200 0.468600 0.705100
vn -0.572700 0.447200 0.686900
vn 0.254500 0.638300 0.726500
vn -0.318100 -0.574500 -0.754100
vn 0.409200 -0.430400 -0.804500
vn 0.364800 -0.449500 -0.815400
vn -0.279200 -0.576000 -0.768300
vn 0.753100 0.528200 0.392300
vn 0.733500 0.538700 0.414300
vn -0.857000 -0.381600 -0.346200
vn -0.883600 -0.356000 -0.304000
vn -0.973400 0.012600 0.228600
vn -0.972100 0.017200 0.233900
vn 0.963100 0.136500 -0.232000
vn 0.948700 0.078300 -0.306300
usemtl tree
s 1
f 30/19/17 23/20/18 19/21/19 26/22/20
f 32/23/21 21/24/22 17/25/23 28/26/24
f 22/27/25 30/19/17 26/22/20 18/28/26
f 24/29/27 32/23/21 28/26/24 20/30/28
f 23/20/18 31/31/29 27/32/30 19/21/19
f 21/24/22 29/33/31 25/34/32 17/25/23
f 31/31/29 24/29/27 20/30/28 27/32/30
f 29/33/31 22/35/25 18/36/26 25/34/32
o pinetree01.006_Plane.003
v 23.192982 -2.350479 -1.467278
v 23.084709 -2.027713 -1.148368
v 22.349421 -2.052872 -1.430823
v 22.512478 -2.339205 -1.712353
v 24.130190 0.798229 -4.037585
v 24.090143 0.986654 -3.912978
v 23.806038 1.013679 -4.036786
v 23.877869 0.911213 -4.237600
v 23.272057 -2.160606 -1.186202
v 22.768490 -1.968248 -1.216557
v 22.449699 -2.162539 -1.568672
v 22.875896 -2.403084 -1.657288
v 24.168617 0.934706 -3.998212
v 23.930519 0.995853 -3.928590
v 23.776854 0.902199 -4.098320
v 23.997910 0.794963 -4.127080
vt 0.918133 2.666139
vt 0.854854 2.699002
vt 0.777615 -0.171764
vt 0.911452 -0.147682
vt 0.438756 2.690664
vt 0.226257 2.672116
vt 0.301615 -0.149135
vt 0.482402 -0.149812
vt 0.983014 2.683601
vt 1.020878 -0.149135
vt 0.599951 2.717907
vt 0.611275 -0.160335
vt 0.796390 2.666139
vt 0.713423 -0.147682
vt 0.034884 2.709143
vt 0.112570 -0.163731
vt -0.088151 2.683601
vt 0.016746 -0.149135
vn -0.241500 0.704600 0.667200
vn -0.836600 0.524300 0.158400
vn -0.857100 0.500900 0.120100
vn -0.239900 0.704500 0.667900
vn 0.212100 -0.644300 -0.734800
vn 0.808200 -0.496700 -0.316200
vn 0.780200 -0.517300 -0.351600
vn 0.250900 -0.646600 -0.720400
vn 0.350700 0.570500 0.742600
vn 0.322100 0.582700 0.746100
vn -0.452600 -0.421600 -0.785700
vn -0.498800 -0.392600 -0.772700
vn -0.891100 0.021800 -0.453200
vn -0.893300 0.026900 -0.448700
vn 0.892700 0.126300 0.432500
vn 0.926500 0.061400 0.371100
usemtl tree
s 1
f 46/37/33 39/38/34 35/39/35 42/40/36
f 48/41/37 37/42/38 33/43/39 44/44/40
f 38/45/41 46/37/33 42/40/36 34/46/42
f 40/47/43 48/41/37 44/44/40 36/48/44
f 39/38/34 47/49/45 43/50/46 35/39/35
f 37/42/38 45/51/47 41/52/48 33/43/39
f 47/49/45 40/47/43 36/48/44 43/50/46
f 45/51/47 38/53/41 34/54/42 41/52/48
o pinetree01.005_Plane.003
v 21.190411 -2.350479 -2.735016
v 20.855829 -2.027713 -2.696523
v 20.796743 -2.052871 -3.481978
v 21.120960 -2.339205 -3.454964
v 23.914633 0.798230 -2.986895
v 23.784868 0.986655 -2.969813
v 23.775301 1.013680 -3.279575
v 23.987545 0.911213 -3.300512
v 20.970140 -2.160606 -2.543346
v 20.782251 -1.968248 -3.011532
v 20.964233 -2.162539 -3.450274
v 21.226583 -2.403084 -3.102900
v 23.895473 0.934706 -2.935322
v 23.730726 0.995853 -3.120783
v 23.818447 0.902200 -3.332269
v 23.938971 0.794963 -3.144741
vt 0.918133 2.666139
vt 0.854854 2.699002
vt 0.777615 -0.171764
vt 0.911452 -0.147682
vt 0.438756 2.690664
vt 0.226257 2.672116
vt 0.301615 -0.149135
vt 0.482402 -0.149812
vt 0.983014 2.683601
vt 1.020878 -0.149135
vt 0.599951 2.717907
vt 0.611275 -0.160335
vt 0.796390 2.666139
vt 0.713423 -0.147682
vt 0.034884 2.709143
vt 0.112570 -0.163731
vt -0.088151 2.683601
vt 0.016746 -0.149135
vn -0.706400 0.704600 0.067000
vn -0.501000 0.524300 -0.688500
vn -0.475100 0.500900 -0.723400
vn -0.706300 0.704500 0.068700
vn 0.754900 -0.644300 -0.122500
vn 0.631500 -0.496700 0.595400
vn 0.651400 -0.517300 0.554900
vn 0.758500 -0.646600 -0.081200
vn -0.521300 0.570500 0.634600
vn -0.536700 0.582700 0.610200
vn 0.516700 -0.421600 -0.745100
vn 0.485200 -0.392600 -0.781300
vn 0.028700 0.021800 -0.999300
vn 0.023600 0.026900 -0.999400
vn -0.009200 0.126300 0.991900
vn 0.060700 0.061400 0.996200
usemtl tree
s 1
f 62/55/49 55/56/50 51/57/51 58/58/52
f 64/59/53 53/60/54 49/61/55 60/62/56
f 54/63/57 62/55/49 58/58/52 50/64/58
f 56/65/59 64/59/53 60/62/56 52/66/60
f 55/56/50 63/67/61 59/68/62 51/57/51
f 53/60/54 61/69/63 57/70/64 49/61/55
f 63/67/61 56/65/59 52/66/60 59/68/62
f 61/69/63 54/71/57 50/72/58 57/70/64
o pinetree01.004_Plane.003
v 22.444267 -2.429533 -4.980652
v 22.156076 -1.904620 -5.446422
v 23.277714 -1.930915 -6.064517
v 23.459009 -2.403962 -5.574938
v 23.887510 0.880739 -2.683196
v 23.763681 1.167374 -2.879166
v 24.208473 1.201373 -3.116060
v 24.371792 1.002711 -2.845381
v 22.013985 -2.111313 -5.164176
v 22.568340 -1.808851 -5.773496
v 23.339979 -2.124826 -5.809292
v 23.010916 -2.514646 -5.181627
v 23.782055 1.066387 -2.706534
v 23.953463 1.193616 -3.053742
v 24.325413 1.041307 -3.070997
v 24.132832 0.866910 -2.763846
vt 0.918133 2.666139
vt 0.854854 2.699002
vt 0.777615 -0.171764
vt 0.911452 -0.147682
vt 0.438756 2.690664
vt 0.226257 2.672116
vt 0.301615 -0.149135
vt 0.482402 -0.149812
vt 0.983014 2.683601
vt 1.020878 -0.149135
vt 0.599951 2.717907
vt 0.611275 -0.160335
vt 0.796390 2.666139
vt 0.713423 -0.147682
vt 0.034884 2.709143
vt 0.112570 -0.163731
vt -0.088151 2.683601
vt 0.016746 -0.149135
vn -0.360700 0.711600 -0.602900
vn 0.414300 0.548400 -0.726300
vn 0.478600 0.514200 -0.711700
vn -0.360300 0.711600 -0.603100
vn 0.428800 -0.617400 0.659500
vn -0.245300 -0.476100 0.844400
vn -0.209600 -0.492100 0.844900
vn 0.406900 -0.618900 0.671800
vn -0.779800 0.590800 -0.207000
vn -0.774000 0.595100 -0.216200
vn 0.909700 -0.380000 0.167300
vn 0.925400 -0.355600 0.130900
vn 0.925800 0.051400 -0.374300
vn 0.924400 0.054900 -0.377400
vn -0.882200 0.128000 0.453200
vn -0.863600 0.084500 0.497000
usemtl tree
s 1
f 78/73/65 71/74/66 67/75/67 74/76/68
f 80/77/69 69/78/70 65/79/71 76/80/72
f 70/81/73 78/73/65 74/76/68 66/82/74
f 72/83/75 80/77/69 76/80/72 68/84/76
f 71/74/66 79/85/77 75/86/78 67/75/67
f 69/78/70 77/87/79 73/88/80 65/79/71
f 79/85/77 72/83/75 68/84/76 75/86/78
f 77/87/79 70/89/73 66/90/74 73/88/80
o pinetree01.003_Plane.003
v 24.139151 -2.380642 -5.311224
v 24.138266 -1.950693 -5.759851
v 25.186010 -1.972231 -5.709046
v 25.102119 -2.359696 -5.289738
v 24.158661 0.330752 -3.089000
v 24.156494 0.565530 -3.278862
v 24.568455 0.593378 -3.252986
v 24.566067 0.430657 -2.994059
v 23.917921 -2.119992 -5.624060
v 24.566282 -1.872250 -5.810839
v 25.119789 -2.131061 -5.504308
v 24.620661 -2.450356 -5.207950
v 24.095144 0.482813 -3.150579
v 24.363840 0.587025 -3.319080
v 24.630646 0.462271 -3.171323
v 24.364391 0.319425 -3.039854
vt 0.918133 2.666139
vt 0.854854 2.699002
vt 0.777615 -0.171764
vt 0.911452 -0.147682
vt 0.438756 2.690664
vt 0.226257 2.672116
vt 0.301615 -0.149135
vt 0.482402 -0.149812
vt 0.983014 2.683601
vt 1.020878 -0.149135
vt 0.599951 2.717907
vt 0.611275 -0.160335
vt 0.796390 2.666139
vt 0.713423 -0.147682
vt 0.034884 2.709143
vt 0.112570 -0.163731
vt -0.088151 2.683601
vt 0.016746 -0.149135
vn 0.009100 0.711600 -0.702500
vn 0.733700 0.548500 -0.401100
vn 0.780800 0.514200 -0.354900
vn 0.009500 0.711600 -0.702500
vn 0.019200 -0.617400 0.786400
vn -0.651800 -0.476100 0.590300
vn -0.621600 -0.492100 0.609500
vn -0.005900 -0.618900 0.785500
vn -0.555300 0.590800 -0.585300
vn -0.545600 0.595100 -0.590000
vn 0.686800 -0.380000 0.619600
vn 0.719200 -0.355600 0.596800
vn 0.984600 0.051400 0.166800
vn 0.985000 0.054900 0.163500
vn -0.988800 0.128000 -0.076800
vn -0.995900 0.084500 -0.029800
usemtl tree
s 1
f 94/91/81 87/92/82 83/93/83 90/94/84
f 96/95/85 85/96/86 81/97/87 92/98/88
f 86/99/89 94/91/81 90/94/84 82/100/90
f 88/101/91 96/95/85 92/98/88 84/102/92
f 87/92/82 95/103/93 91/104/94 83/93/83
f 85/96/86 93/105/95 89/106/96 81/97/87
f 95/103/93 88/101/91 84/102/92 91/104/94
f 93/105/95 86/107/89 82/108/90 89/106/96
